P3
60 60
255
9 230 230 9 230 230 9 230 230 9 230 230 9 230 230 9 230 230 9 230 230 9 230 230 9 230 230 9 230 230 9 230 230 9 230 230 9 230 230 9 230 230 9 230 230 9 230 230 9 230 230 9 230 230 9 230 230 9 230 230 9 230 230 9 230 230 9 230 230 9 230 230 9 230 230 9 230 230 9 230 230 9 230 230 9 230 230 9 230 230 9 230 230 9 230 230 9 230 230 9 230 230 9 230 230 9 230 230 9 230 230 9 230 230 9 230 230 9 230 230 9 230 230 9 230 230 9 230 230 9 230 230 9 230 230 9 230 230 9 230 230 9 230 230 9 230 230 9 230 230 9 230 230 9 230 230 9 230 230 9 230 230 9 230 230 9 230 230 9 230 230 9 230 230 9 230 230 9 230 230
9 230 230 9 230 230 9 230 230 9 230 230 9 230 230 9 230 230 9 230 230 9 230 230 9 230 230 9 230 230 9 230 230 9 230 230 9 230 230 9 230 230 9 230 230 9 230 230 9 230 230 9 230 230 9 230 230 9 230 230 9 230 230 9 230 230 9 230 230 9 230 230 9 230 230 9 230 230 9 230 230 9 230 230 9 230 230 9 230 230 9 230 230 9 230 230 9 230 230 9 230 230 9 230 230 9 230 230 9 230 230 9 230 230 9 230 230 9 230 230 9 230 230 9 230 230 9 230 230 9 230 230 9 230 230 9 230 230 9 230 230 9 230 230 9 230 230 9 230 230 9 230 230 9 230 230 9 230 230 9 230 230 9 230 230 9 230 230 9 230 230 9 230 230 9 230 230 9 230 230
9 230 230 9 230 230 9 230 230 9 230 230 9 230 230 9 230 230 9 230 230 9 230 230 9 230 230 9 230 230 9 230 230 9 230 230 9 230 230 9 230 230 9 230 230 9 230 230 9 230 230 9 230 230 9 230 230 9 230 230 9 230 230 9 230 230 9 230 230 9 230 230 9 230 230 9 230 230 9 230 230 9 230 230 9 230 230 9 230 230 9 230 230 9 230 230 9 230 230 9 230 230 9 230 230 9 230 230 9 230 230 9 230 230 9 230 230 9 230 230 9 230 230 9 230 230 9 230 230 9 230 230 9 230 230 9 230 230 9 230 230 9 230 230 9 230 230 9 230 230 9 230 230 9 230 230 9 230 230 9 230 230 9 230 230 9 230 230 9 230 230 9 230 230 9 230 230 9 230 230
9 230 230 9 230 230 9 230 230 9 230 230 9 230 230 9 230 230 9 230 230 9 230 230 9 230 230 9 230 230 9 230 230 9 230 230 9 230 230 9 230 230 9 230 230 9 230 230 9 230 230 9 230 230 9 230 230 9 230 230 9 230 230 9 230 230 9 230 230 9 230 230 9 230 230 9 230 230 9 230 230 9 230 230 9 230 230 9 230 230 9 230 230 9 230 230 9 230 230 9 230 230 9 230 230 9 230 230 9 230 230 9 230 230 9 230 230 9 230 230 9 230 230 9 230 230 9 230 230 9 230 230 9 230 230 9 230 230 9 230 230 9 230 230 9 230 230 9 230 230 9 230 230 9 230 230 9 230 230 9 230 230 9 230 230 9 230 230 9 230 230 9 230 230 9 230 230 9 230 230
9 230 230 9 230 230 9 230 230 9 230 230 9 230 230 9 230 230 9 230 230 9 230 230 9 230 230 9 230 230 9 230 230 9 230 230 9 230 230 9 230 230 9 230 230 9 230 230 9 230 230 9 230 230 9 230 230 9 230 230 9 230 230 9 230 230 9 230 230 9 230 230 9 230 230 9 230 230 9 230 230 9 230 230 9 230 230 9 230 230 9 230 230 9 230 230 9 230 230 9 230 230 9 230 230 9 230 230 9 230 230 9 230 230 9 230 230 9 230 230 9 230 230 9 230 230 9 230 230 9 230 230 9 230 230 9 230 230 9 230 230 9 230 230 9 230 230 9 230 230 9 230 230 9 230 230 9 230 230 9 230 230 9 230 230 9 230 230 9 230 230 9 230 230 9 230 230 9 230 230
9 230 230 9 230 230 9 230 230 9 230 230 9 230 230 9 230 230 9 230 230 9 230 230 9 230 230 9 230 230 9 230 230 9 230 230 9 230 230 9 230 230 9 230 230 9 230 230 9 230 230 9 230 230 9 230 230 9 230 230 9 230 230 9 230 230 9 230 230 9 230 230 9 230 230 9 230 230 9 230 230 9 230 230 9 230 230 9 230 230 9 230 230 9 230 230 9 230 230 9 230 230 9 230 230 9 230 230 9 230 230 9 230 230 9 230 230 9 230 230 9 230 230 9 230 230 9 230 230 9 230 230 9 230 230 9 230 230 9 230 230 9 230 230 9 230 230 9 230 230 9 230 230 9 230 230 9 230 230 9 230 230 9 230 230 9 230 230 9 230 230 9 230 230 9 230 230 9 230 230
9 230 230 9 230 230 9 230 230 9 230 230 9 230 230 9 230 230 9 230 230 9 230 230 9 230 230 9 230 230 9 230 230 9 230 230 9 230 230 9 230 230 9 230 230 9 230 230 9 230 230 9 230 230 9 230 230 9 230 230 9 230 230 9 230 230 9 230 230 9 230 230 9 230 230 9 230 230 9 230 230 9 230 230 9 230 230 9 230 230 9 230 230 9 230 230 9 230 230 9 230 230 9 230 230 9 230 230 9 230 230 9 230 230 9 230 230 9 230 230 9 230 230 9 230 230 9 230 230 9 230 230 9 230 230 9 230 230 9 230 230 9 230 230 9 230 230 9 230 230 9 230 230 9 230 230 9 230 230 9 230 230 9 230 230 9 230 230 9 230 230 9 230 230 9 230 230 9 230 230
9 230 230 9 230 230 9 230 230 9 230 230 9 230 230 9 230 230 9 230 230 9 230 230 9 230 230 9 230 230 9 230 230 9 230 230 9 230 230 9 230 230 9 230 230 9 230 230 9 230 230 9 230 230 9 230 230 9 230 230 9 230 230 9 230 230 9 230 230 9 230 230 9 230 230 9 230 230 9 230 230 9 230 230 9 230 230 9 230 230 9 230 230 9 230 230 9 230 230 9 230 230 9 230 230 9 230 230 9 230 230 9 230 230 9 230 230 9 230 230 9 230 230 9 230 230 9 230 230 9 230 230 9 230 230 9 230 230 9 230 230 9 230 230 9 230 230 9 230 230 9 230 230 9 230 230 9 230 230 9 230 230 9 230 230 9 230 230 9 230 230 9 230 230 9 230 230 9 230 230
9 230 230 9 230 230 9 230 230 9 230 230 9 230 230 9 230 230 9 230 230 9 230 230 9 230 230 9 230 230 9 230 230 9 230 230 9 230 230 9 230 230 9 230 230 9 230 230 9 230 230 9 230 230 9 230 230 9 230 230 9 230 230 9 230 230 9 230 230 9 230 230 9 230 230 9 230 230 9 230 230 9 230 230 9 230 230 9 230 230 9 230 230 9 230 230 9 230 230 9 230 230 9 230 230 9 230 230 9 230 230 9 230 230 9 230 230 9 230 230 9 230 230 9 230 230 9 230 230 9 230 230 9 230 230 9 230 230 9 230 230 9 230 230 9 230 230 9 230 230 9 230 230 9 230 230 9 230 230 9 230 230 9 230 230 9 230 230 9 230 230 9 230 230 9 230 230 9 230 230
9 230 230 9 230 230 9 230 230 9 230 230 9 230 230 9 230 230 9 230 230 9 230 230 9 230 230 9 230 230 9 230 230 9 230 230 9 230 230 9 230 230 9 230 230 9 230 230 9 230 230 9 230 230 9 230 230 9 230 230 9 230 230 9 230 230 9 230 230 9 230 230 9 230 230 9 230 230 9 230 230 9 230 230 9 230 230 9 230 230 9 230 230 9 230 230 9 230 230 9 230 230 9 230 230 9 230 230 9 230 230 9 230 230 9 230 230 9 230 230 9 230 230 9 230 230 9 230 230 9 230 230 9 230 230 9 230 230 9 230 230 9 230 230 9 230 230 9 230 230 9 230 230 9 230 230 9 230 230 9 230 230 9 230 230 9 230 230 9 230 230 9 230 230 9 230 230 9 230 230
9 230 230 9 230 230 9 230 230 9 230 230 9 230 230 9 230 230 9 230 230 9 230 230 9 230 230 9 230 230 188 72 194 188 72 194 188 72 194 188 72 194 188 72 194 188 72 194 188 72 194 188 72 194 188 72 194 188 72 194 188 72 194 188 72 194 188 72 194 188 72 194 188 72 194 188 72 194 188 72 194 188 72 194 188 72 194 27 125 7 188 72 194 188 72 194 188 72 194 188 72 194 188 72 194 188 72 194 188 72 194 188 72 194 188 72 194 188 72 194 188 72 194 188 72 194 188 72 194 188 72 194 188 72 194 188 72 194 188 72 194 188 72 194 188 72 194 188 72 194 9 230 230 9 230 230 9 230 230 9 230 230 9 230 230 9 230 230 9 230 230 9 230 230 9 230 230 9 230 230
9 230 230 9 230 230 9 230 230 9 230 230 9 230 230 9 230 230 9 230 230 9 230 230 9 230 230 9 230 230 188 72 194 9 230 230 9 230 230 9 230 230 9 230 230 9 230 230 9 230 230 9 230 230 9 230 230 9 230 230 9 230 230 9 230 230 9 230 230 9 230 230 9 230 230 9 230 230 9 230 230 9 230 230 9 230 230 27 125 7 9 230 230 9 230 230 9 230 230 9 230 230 9 230 230 9 230 230 9 230 230 9 230 230 9 230 230 9 230 230 9 230 230 9 230 230 9 230 230 9 230 230 9 230 230 9 230 230 9 230 230 9 230 230 9 230 230 188 72 194 9 230 230 9 230 230 9 230 230 9 230 230 9 230 230 9 230 230 9 230 230 9 230 230 9 230 230 9 230 230
9 230 230 9 230 230 9 230 230 9 230 230 9 230 230 9 230 230 9 230 230 9 230 230 9 230 230 9 230 230 188 72 194 9 230 230 9 230 230 9 230 230 9 230 230 9 230 230 9 230 230 9 230 230 9 230 230 9 230 230 9 230 230 9 230 230 9 230 230 9 230 230 9 230 230 9 230 230 9 230 230 9 230 230 9 230 230 27 125 7 9 230 230 9 230 230 9 230 230 9 230 230 9 230 230 9 230 230 9 230 230 9 230 230 9 230 230 9 230 230 9 230 230 9 230 230 9 230 230 9 230 230 9 230 230 9 230 230 9 230 230 9 230 230 9 230 230 188 72 194 9 230 230 9 230 230 9 230 230 9 230 230 9 230 230 9 230 230 9 230 230 9 230 230 9 230 230 9 230 230
9 230 230 9 230 230 9 230 230 9 230 230 9 230 230 9 230 230 9 230 230 9 230 230 9 230 230 9 230 230 188 72 194 9 230 230 9 230 230 9 230 230 9 230 230 9 230 230 9 230 230 9 230 230 9 230 230 9 230 230 9 230 230 9 230 230 9 230 230 9 230 230 9 230 230 9 230 230 9 230 230 9 230 230 9 230 230 27 125 7 9 230 230 9 230 230 9 230 230 9 230 230 9 230 230 9 230 230 9 230 230 9 230 230 9 230 230 9 230 230 9 230 230 9 230 230 9 230 230 9 230 230 9 230 230 9 230 230 9 230 230 9 230 230 9 230 230 188 72 194 9 230 230 9 230 230 9 230 230 9 230 230 9 230 230 9 230 230 9 230 230 9 230 230 9 230 230 9 230 230
9 230 230 9 230 230 9 230 230 9 230 230 9 230 230 9 230 230 9 230 230 9 230 230 9 230 230 9 230 230 188 72 194 9 230 230 9 230 230 9 230 230 9 230 230 9 230 230 9 230 230 9 230 230 9 230 230 9 230 230 9 230 230 9 230 230 9 230 230 9 230 230 9 230 230 9 230 230 9 230 230 9 230 230 9 230 230 27 125 7 9 230 230 9 230 230 9 230 230 9 230 230 9 230 230 9 230 230 9 230 230 9 230 230 9 230 230 9 230 230 9 230 230 9 230 230 9 230 230 9 230 230 9 230 230 9 230 230 9 230 230 9 230 230 9 230 230 188 72 194 9 230 230 9 230 230 9 230 230 9 230 230 9 230 230 9 230 230 9 230 230 9 230 230 9 230 230 9 230 230
9 230 230 9 230 230 9 230 230 9 230 230 9 230 230 9 230 230 9 230 230 9 230 230 9 230 230 9 230 230 188 72 194 9 230 230 9 230 230 9 230 230 9 230 230 9 230 230 9 230 230 9 230 230 9 230 230 9 230 230 9 230 230 9 230 230 9 230 230 9 230 230 9 230 230 9 230 230 9 230 230 9 230 230 9 230 230 27 125 7 9 230 230 9 230 230 9 230 230 9 230 230 9 230 230 9 230 230 9 230 230 9 230 230 9 230 230 9 230 230 9 230 230 9 230 230 9 230 230 9 230 230 9 230 230 9 230 230 9 230 230 9 230 230 9 230 230 188 72 194 9 230 230 9 230 230 9 230 230 9 230 230 9 230 230 9 230 230 9 230 230 9 230 230 9 230 230 9 230 230
9 230 230 9 230 230 9 230 230 9 230 230 9 230 230 9 230 230 9 230 230 9 230 230 9 230 230 9 230 230 188 72 194 9 230 230 9 230 230 9 230 230 9 230 230 9 230 230 9 230 230 9 230 230 9 230 230 9 230 230 9 230 230 9 230 230 9 230 230 9 230 230 9 230 230 9 230 230 9 230 230 9 230 230 9 230 230 27 125 7 9 230 230 9 230 230 9 230 230 9 230 230 9 230 230 9 230 230 9 230 230 9 230 230 9 230 230 9 230 230 9 230 230 9 230 230 9 230 230 9 230 230 9 230 230 9 230 230 9 230 230 9 230 230 9 230 230 188 72 194 9 230 230 9 230 230 9 230 230 9 230 230 9 230 230 9 230 230 9 230 230 9 230 230 9 230 230 9 230 230
9 230 230 9 230 230 9 230 230 9 230 230 9 230 230 9 230 230 9 230 230 9 230 230 9 230 230 9 230 230 188 72 194 9 230 230 9 230 230 9 230 230 9 230 230 9 230 230 9 230 230 9 230 230 9 230 230 9 230 230 9 230 230 9 230 230 9 230 230 9 230 230 9 230 230 9 230 230 9 230 230 9 230 230 9 230 230 27 125 7 9 230 230 9 230 230 9 230 230 9 230 230 9 230 230 9 230 230 9 230 230 9 230 230 9 230 230 9 230 230 9 230 230 9 230 230 9 230 230 9 230 230 9 230 230 9 230 230 9 230 230 9 230 230 9 230 230 188 72 194 9 230 230 9 230 230 9 230 230 9 230 230 9 230 230 9 230 230 9 230 230 9 230 230 9 230 230 9 230 230
9 230 230 9 230 230 9 230 230 9 230 230 9 230 230 9 230 230 9 230 230 9 230 230 9 230 230 9 230 230 188 72 194 9 230 230 9 230 230 9 230 230 9 230 230 9 230 230 9 230 230 9 230 230 9 230 230 9 230 230 9 230 230 9 230 230 9 230 230 9 230 230 9 230 230 9 230 230 9 230 230 9 230 230 9 230 230 27 125 7 9 230 230 9 230 230 9 230 230 9 230 230 9 230 230 9 230 230 9 230 230 9 230 230 9 230 230 9 230 230 9 230 230 9 230 230 9 230 230 9 230 230 9 230 230 9 230 230 9 230 230 9 230 230 9 230 230 188 72 194 9 230 230 9 230 230 9 230 230 9 230 230 9 230 230 9 230 230 9 230 230 9 230 230 9 230 230 9 230 230
9 230 230 9 230 230 9 230 230 9 230 230 9 230 230 9 230 230 9 230 230 9 230 230 9 230 230 9 230 230 188 72 194 9 230 230 9 230 230 9 230 230 9 230 230 9 230 230 9 230 230 9 230 230 9 230 230 9 230 230 9 230 230 9 230 230 9 230 230 9 230 230 9 230 230 9 230 230 9 230 230 9 230 230 9 230 230 27 125 7 9 230 230 9 230 230 9 230 230 9 230 230 9 230 230 9 230 230 9 230 230 9 230 230 9 230 230 9 230 230 9 230 230 9 230 230 9 230 230 9 230 230 9 230 230 9 230 230 9 230 230 9 230 230 9 230 230 188 72 194 9 230 230 9 230 230 9 230 230 9 230 230 9 230 230 9 230 230 9 230 230 9 230 230 9 230 230 9 230 230
9 230 230 9 230 230 9 230 230 9 230 230 9 230 230 9 230 230 9 230 230 9 230 230 9 230 230 9 230 230 188 72 194 9 230 230 9 230 230 9 230 230 9 230 230 9 230 230 9 230 230 9 230 230 9 230 230 9 230 230 9 230 230 9 230 230 9 230 230 9 230 230 9 230 230 9 230 230 9 230 230 9 230 230 9 230 230 27 125 7 9 230 230 9 230 230 9 230 230 9 230 230 9 230 230 9 230 230 9 230 230 9 230 230 9 230 230 9 230 230 9 230 230 9 230 230 9 230 230 9 230 230 9 230 230 9 230 230 9 230 230 9 230 230 9 230 230 188 72 194 9 230 230 9 230 230 9 230 230 9 230 230 9 230 230 9 230 230 9 230 230 9 230 230 9 230 230 9 230 230
9 230 230 9 230 230 9 230 230 9 230 230 9 230 230 9 230 230 9 230 230 9 230 230 9 230 230 9 230 230 188 72 194 9 230 230 9 230 230 9 230 230 9 230 230 9 230 230 9 230 230 9 230 230 9 230 230 9 230 230 9 230 230 9 230 230 9 230 230 9 230 230 9 230 230 9 230 230 9 230 230 9 230 230 9 230 230 27 125 7 9 230 230 9 230 230 9 230 230 9 230 230 9 230 230 9 230 230 9 230 230 9 230 230 9 230 230 9 230 230 9 230 230 9 230 230 9 230 230 9 230 230 9 230 230 9 230 230 9 230 230 9 230 230 9 230 230 188 72 194 9 230 230 9 230 230 9 230 230 9 230 230 9 230 230 9 230 230 9 230 230 9 230 230 9 230 230 9 230 230
9 230 230 9 230 230 9 230 230 9 230 230 9 230 230 9 230 230 9 230 230 9 230 230 9 230 230 9 230 230 188 72 194 9 230 230 9 230 230 9 230 230 9 230 230 9 230 230 9 230 230 9 230 230 9 230 230 9 230 230 9 230 230 9 230 230 9 230 230 9 230 230 9 230 230 9 230 230 9 230 230 9 230 230 9 230 230 27 125 7 9 230 230 9 230 230 9 230 230 9 230 230 9 230 230 9 230 230 9 230 230 9 230 230 9 230 230 9 230 230 9 230 230 9 230 230 9 230 230 9 230 230 9 230 230 9 230 230 9 230 230 9 230 230 9 230 230 188 72 194 9 230 230 9 230 230 9 230 230 9 230 230 9 230 230 9 230 230 9 230 230 9 230 230 9 230 230 9 230 230
9 230 230 9 230 230 9 230 230 9 230 230 9 230 230 9 230 230 9 230 230 9 230 230 9 230 230 9 230 230 188 72 194 9 230 230 9 230 230 9 230 230 9 230 230 9 230 230 9 230 230 9 230 230 9 230 230 9 230 230 9 230 230 9 230 230 9 230 230 9 230 230 9 230 230 9 230 230 9 230 230 9 230 230 9 230 230 27 125 7 9 230 230 9 230 230 9 230 230 9 230 230 9 230 230 9 230 230 9 230 230 9 230 230 9 230 230 9 230 230 9 230 230 9 230 230 9 230 230 9 230 230 9 230 230 9 230 230 9 230 230 9 230 230 9 230 230 188 72 194 9 230 230 9 230 230 9 230 230 9 230 230 9 230 230 9 230 230 9 230 230 9 230 230 9 230 230 9 230 230
9 230 230 9 230 230 9 230 230 9 230 230 9 230 230 9 230 230 9 230 230 9 230 230 9 230 230 9 230 230 188 72 194 9 230 230 9 230 230 9 230 230 9 230 230 9 230 230 9 230 230 9 230 230 9 230 230 9 230 230 9 230 230 9 230 230 9 230 230 9 230 230 9 230 230 9 230 230 9 230 230 9 230 230 9 230 230 27 125 7 9 230 230 9 230 230 9 230 230 9 230 230 9 230 230 9 230 230 9 230 230 9 230 230 9 230 230 9 230 230 9 230 230 9 230 230 9 230 230 9 230 230 9 230 230 9 230 230 9 230 230 9 230 230 9 230 230 188 72 194 9 230 230 9 230 230 9 230 230 9 230 230 9 230 230 9 230 230 9 230 230 9 230 230 9 230 230 9 230 230
9 230 230 9 230 230 9 230 230 9 230 230 9 230 230 9 230 230 9 230 230 9 230 230 9 230 230 9 230 230 188 72 194 9 230 230 9 230 230 9 230 230 9 230 230 9 230 230 9 230 230 9 230 230 9 230 230 9 230 230 9 230 230 9 230 230 9 230 230 9 230 230 9 230 230 9 230 230 9 230 230 9 230 230 9 230 230 27 125 7 9 230 230 9 230 230 9 230 230 9 230 230 9 230 230 9 230 230 9 230 230 9 230 230 9 230 230 9 230 230 9 230 230 9 230 230 9 230 230 9 230 230 9 230 230 9 230 230 9 230 230 9 230 230 9 230 230 188 72 194 9 230 230 9 230 230 9 230 230 9 230 230 9 230 230 9 230 230 9 230 230 9 230 230 9 230 230 9 230 230
9 230 230 9 230 230 9 230 230 9 230 230 9 230 230 9 230 230 9 230 230 9 230 230 9 230 230 9 230 230 188 72 194 9 230 230 9 230 230 9 230 230 9 230 230 9 230 230 9 230 230 9 230 230 9 230 230 9 230 230 9 230 230 9 230 230 9 230 230 9 230 230 9 230 230 9 230 230 9 230 230 9 230 230 9 230 230 27 125 7 9 230 230 9 230 230 9 230 230 9 230 230 9 230 230 9 230 230 9 230 230 9 230 230 9 230 230 9 230 230 9 230 230 9 230 230 9 230 230 9 230 230 9 230 230 9 230 230 9 230 230 9 230 230 9 230 230 188 72 194 9 230 230 9 230 230 9 230 230 9 230 230 9 230 230 9 230 230 9 230 230 9 230 230 9 230 230 9 230 230
9 230 230 9 230 230 9 230 230 9 230 230 9 230 230 9 230 230 9 230 230 9 230 230 9 230 230 9 230 230 188 72 194 9 230 230 9 230 230 9 230 230 9 230 230 9 230 230 9 230 230 9 230 230 9 230 230 9 230 230 9 230 230 9 230 230 9 230 230 9 230 230 9 230 230 9 230 230 9 230 230 9 230 230 9 230 230 27 125 7 9 230 230 9 230 230 9 230 230 9 230 230 9 230 230 9 230 230 9 230 230 9 230 230 9 230 230 9 230 230 9 230 230 9 230 230 9 230 230 9 230 230 9 230 230 9 230 230 9 230 230 9 230 230 9 230 230 188 72 194 9 230 230 9 230 230 9 230 230 9 230 230 9 230 230 9 230 230 9 230 230 9 230 230 9 230 230 9 230 230
9 230 230 9 230 230 9 230 230 9 230 230 9 230 230 9 230 230 9 230 230 9 230 230 9 230 230 9 230 230 188 72 194 9 230 230 9 230 230 9 230 230 9 230 230 9 230 230 9 230 230 9 230 230 9 230 230 9 230 230 9 230 230 9 230 230 9 230 230 9 230 230 9 230 230 9 230 230 9 230 230 9 230 230 9 230 230 27 125 7 9 230 230 9 230 230 9 230 230 9 230 230 9 230 230 9 230 230 9 230 230 9 230 230 9 230 230 9 230 230 9 230 230 9 230 230 9 230 230 9 230 230 9 230 230 9 230 230 9 230 230 9 230 230 9 230 230 188 72 194 9 230 230 9 230 230 9 230 230 9 230 230 9 230 230 9 230 230 9 230 230 9 230 230 9 230 230 9 230 230
9 230 230 9 230 230 9 230 230 9 230 230 9 230 230 9 230 230 9 230 230 9 230 230 9 230 230 9 230 230 27 125 7 27 125 7 27 125 7 27 125 7 27 125 7 27 125 7 27 125 7 27 125 7 27 125 7 27 125 7 27 125 7 27 125 7 27 125 7 27 125 7 27 125 7 27 125 7 27 125 7 27 125 7 27 125 7 27 125 7 27 125 7 27 125 7 27 125 7 27 125 7 27 125 7 27 125 7 27 125 7 27 125 7 27 125 7 27 125 7 27 125 7 27 125 7 27 125 7 27 125 7 27 125 7 27 125 7 27 125 7 27 125 7 27 125 7 27 125 7 9 230 230 9 230 230 9 230 230 9 230 230 9 230 230 9 230 230 9 230 230 9 230 230 9 230 230 9 230 230
9 230 230 9 230 230 9 230 230 9 230 230 9 230 230 9 230 230 9 230 230 9 230 230 9 230 230 9 230 230 188 72 194 9 230 230 9 230 230 9 230 230 9 230 230 9 230 230 9 230 230 9 230 230 9 230 230 9 230 230 9 230 230 9 230 230 9 230 230 9 230 230 9 230 230 9 230 230 9 230 230 9 230 230 9 230 230 27 125 7 9 230 230 9 230 230 9 230 230 9 230 230 9 230 230 9 230 230 9 230 230 9 230 230 9 230 230 9 230 230 9 230 230 9 230 230 9 230 230 9 230 230 9 230 230 9 230 230 9 230 230 9 230 230 9 230 230 188 72 194 9 230 230 9 230 230 9 230 230 9 230 230 9 230 230 9 230 230 9 230 230 9 230 230 9 230 230 9 230 230
9 230 230 9 230 230 9 230 230 9 230 230 9 230 230 9 230 230 9 230 230 9 230 230 9 230 230 9 230 230 188 72 194 9 230 230 9 230 230 9 230 230 9 230 230 9 230 230 9 230 230 9 230 230 9 230 230 9 230 230 9 230 230 9 230 230 9 230 230 9 230 230 9 230 230 9 230 230 9 230 230 9 230 230 9 230 230 27 125 7 9 230 230 9 230 230 9 230 230 9 230 230 9 230 230 9 230 230 9 230 230 9 230 230 9 230 230 9 230 230 9 230 230 9 230 230 9 230 230 9 230 230 9 230 230 9 230 230 9 230 230 9 230 230 9 230 230 188 72 194 9 230 230 9 230 230 9 230 230 9 230 230 9 230 230 9 230 230 9 230 230 9 230 230 9 230 230 9 230 230
9 230 230 9 230 230 9 230 230 9 230 230 9 230 230 9 230 230 9 230 230 9 230 230 9 230 230 9 230 230 188 72 194 9 230 230 9 230 230 9 230 230 9 230 230 9 230 230 9 230 230 9 230 230 9 230 230 9 230 230 9 230 230 9 230 230 9 230 230 9 230 230 9 230 230 9 230 230 9 230 230 9 230 230 9 230 230 27 125 7 9 230 230 9 230 230 9 230 230 9 230 230 9 230 230 9 230 230 9 230 230 9 230 230 9 230 230 9 230 230 9 230 230 9 230 230 9 230 230 9 230 230 9 230 230 9 230 230 9 230 230 9 230 230 9 230 230 188 72 194 9 230 230 9 230 230 9 230 230 9 230 230 9 230 230 9 230 230 9 230 230 9 230 230 9 230 230 9 230 230
9 230 230 9 230 230 9 230 230 9 230 230 9 230 230 9 230 230 9 230 230 9 230 230 9 230 230 9 230 230 188 72 194 9 230 230 9 230 230 9 230 230 9 230 230 9 230 230 9 230 230 9 230 230 9 230 230 9 230 230 9 230 230 9 230 230 9 230 230 9 230 230 9 230 230 9 230 230 9 230 230 9 230 230 9 230 230 27 125 7 9 230 230 9 230 230 9 230 230 9 230 230 9 230 230 9 230 230 9 230 230 9 230 230 9 230 230 9 230 230 9 230 230 9 230 230 9 230 230 9 230 230 9 230 230 9 230 230 9 230 230 9 230 230 9 230 230 188 72 194 9 230 230 9 230 230 9 230 230 9 230 230 9 230 230 9 230 230 9 230 230 9 230 230 9 230 230 9 230 230
9 230 230 9 230 230 9 230 230 9 230 230 9 230 230 9 230 230 9 230 230 9 230 230 9 230 230 9 230 230 188 72 194 9 230 230 9 230 230 9 230 230 9 230 230 9 230 230 9 230 230 9 230 230 9 230 230 9 230 230 9 230 230 9 230 230 9 230 230 9 230 230 9 230 230 9 230 230 9 230 230 9 230 230 9 230 230 27 125 7 9 230 230 9 230 230 9 230 230 9 230 230 9 230 230 9 230 230 9 230 230 9 230 230 9 230 230 9 230 230 9 230 230 9 230 230 9 230 230 9 230 230 9 230 230 9 230 230 9 230 230 9 230 230 9 230 230 188 72 194 9 230 230 9 230 230 9 230 230 9 230 230 9 230 230 9 230 230 9 230 230 9 230 230 9 230 230 9 230 230
9 230 230 9 230 230 9 230 230 9 230 230 9 230 230 9 230 230 9 230 230 9 230 230 9 230 230 9 230 230 188 72 194 9 230 230 9 230 230 9 230 230 9 230 230 9 230 230 9 230 230 9 230 230 9 230 230 9 230 230 9 230 230 9 230 230 9 230 230 9 230 230 9 230 230 9 230 230 9 230 230 9 230 230 9 230 230 27 125 7 9 230 230 9 230 230 9 230 230 9 230 230 9 230 230 9 230 230 9 230 230 9 230 230 9 230 230 9 230 230 9 230 230 9 230 230 9 230 230 9 230 230 9 230 230 9 230 230 9 230 230 9 230 230 9 230 230 188 72 194 9 230 230 9 230 230 9 230 230 9 230 230 9 230 230 9 230 230 9 230 230 9 230 230 9 230 230 9 230 230
9 230 230 9 230 230 9 230 230 9 230 230 9 230 230 9 230 230 9 230 230 9 230 230 9 230 230 9 230 230 188 72 194 9 230 230 9 230 230 9 230 230 9 230 230 9 230 230 9 230 230 9 230 230 9 230 230 9 230 230 9 230 230 9 230 230 9 230 230 9 230 230 9 230 230 9 230 230 9 230 230 9 230 230 9 230 230 27 125 7 9 230 230 9 230 230 9 230 230 9 230 230 9 230 230 9 230 230 9 230 230 9 230 230 9 230 230 9 230 230 9 230 230 9 230 230 9 230 230 9 230 230 9 230 230 9 230 230 9 230 230 9 230 230 9 230 230 188 72 194 9 230 230 9 230 230 9 230 230 9 230 230 9 230 230 9 230 230 9 230 230 9 230 230 9 230 230 9 230 230
9 230 230 9 230 230 9 230 230 9 230 230 9 230 230 9 230 230 9 230 230 9 230 230 9 230 230 9 230 230 188 72 194 9 230 230 9 230 230 9 230 230 9 230 230 9 230 230 9 230 230 9 230 230 9 230 230 9 230 230 9 230 230 9 230 230 9 230 230 9 230 230 9 230 230 9 230 230 9 230 230 9 230 230 9 230 230 27 125 7 9 230 230 9 230 230 9 230 230 9 230 230 9 230 230 9 230 230 9 230 230 9 230 230 9 230 230 9 230 230 9 230 230 9 230 230 9 230 230 9 230 230 9 230 230 9 230 230 9 230 230 9 230 230 9 230 230 188 72 194 9 230 230 9 230 230 9 230 230 9 230 230 9 230 230 9 230 230 9 230 230 9 230 230 9 230 230 9 230 230
9 230 230 9 230 230 9 230 230 9 230 230 9 230 230 9 230 230 9 230 230 9 230 230 9 230 230 9 230 230 188 72 194 9 230 230 9 230 230 9 230 230 9 230 230 9 230 230 9 230 230 9 230 230 9 230 230 9 230 230 9 230 230 9 230 230 9 230 230 9 230 230 9 230 230 9 230 230 9 230 230 9 230 230 9 230 230 27 125 7 9 230 230 9 230 230 9 230 230 9 230 230 9 230 230 9 230 230 9 230 230 9 230 230 9 230 230 9 230 230 9 230 230 9 230 230 9 230 230 9 230 230 9 230 230 9 230 230 9 230 230 9 230 230 9 230 230 188 72 194 9 230 230 9 230 230 9 230 230 9 230 230 9 230 230 9 230 230 9 230 230 9 230 230 9 230 230 9 230 230
9 230 230 9 230 230 9 230 230 9 230 230 9 230 230 9 230 230 9 230 230 9 230 230 9 230 230 9 230 230 188 72 194 9 230 230 9 230 230 9 230 230 9 230 230 9 230 230 9 230 230 9 230 230 9 230 230 9 230 230 9 230 230 9 230 230 9 230 230 9 230 230 9 230 230 9 230 230 9 230 230 9 230 230 9 230 230 27 125 7 9 230 230 9 230 230 9 230 230 9 230 230 9 230 230 9 230 230 9 230 230 9 230 230 9 230 230 9 230 230 9 230 230 9 230 230 9 230 230 9 230 230 9 230 230 9 230 230 9 230 230 9 230 230 9 230 230 188 72 194 9 230 230 9 230 230 9 230 230 9 230 230 9 230 230 9 230 230 9 230 230 9 230 230 9 230 230 9 230 230
9 230 230 9 230 230 9 230 230 9 230 230 9 230 230 9 230 230 9 230 230 9 230 230 9 230 230 9 230 230 188 72 194 9 230 230 9 230 230 9 230 230 9 230 230 9 230 230 9 230 230 9 230 230 9 230 230 9 230 230 9 230 230 9 230 230 9 230 230 9 230 230 9 230 230 9 230 230 9 230 230 9 230 230 9 230 230 27 125 7 9 230 230 9 230 230 9 230 230 9 230 230 9 230 230 9 230 230 9 230 230 9 230 230 9 230 230 9 230 230 9 230 230 9 230 230 9 230 230 9 230 230 9 230 230 9 230 230 9 230 230 9 230 230 9 230 230 188 72 194 9 230 230 9 230 230 9 230 230 9 230 230 9 230 230 9 230 230 9 230 230 9 230 230 9 230 230 9 230 230
9 230 230 9 230 230 9 230 230 9 230 230 9 230 230 9 230 230 9 230 230 9 230 230 9 230 230 9 230 230 188 72 194 9 230 230 9 230 230 9 230 230 9 230 230 9 230 230 9 230 230 9 230 230 9 230 230 9 230 230 9 230 230 9 230 230 9 230 230 9 230 230 9 230 230 9 230 230 9 230 230 9 230 230 9 230 230 27 125 7 9 230 230 9 230 230 9 230 230 9 230 230 9 230 230 9 230 230 9 230 230 9 230 230 9 230 230 9 230 230 9 230 230 9 230 230 9 230 230 9 230 230 9 230 230 9 230 230 9 230 230 9 230 230 9 230 230 188 72 194 9 230 230 9 230 230 9 230 230 9 230 230 9 230 230 9 230 230 9 230 230 9 230 230 9 230 230 9 230 230
9 230 230 9 230 230 9 230 230 9 230 230 9 230 230 9 230 230 9 230 230 9 230 230 9 230 230 9 230 230 188 72 194 9 230 230 9 230 230 9 230 230 9 230 230 9 230 230 9 230 230 9 230 230 9 230 230 9 230 230 9 230 230 9 230 230 9 230 230 9 230 230 9 230 230 9 230 230 9 230 230 9 230 230 9 230 230 27 125 7 9 230 230 9 230 230 9 230 230 9 230 230 9 230 230 9 230 230 9 230 230 9 230 230 9 230 230 9 230 230 9 230 230 9 230 230 9 230 230 9 230 230 9 230 230 9 230 230 9 230 230 9 230 230 9 230 230 188 72 194 9 230 230 9 230 230 9 230 230 9 230 230 9 230 230 9 230 230 9 230 230 9 230 230 9 230 230 9 230 230
9 230 230 9 230 230 9 230 230 9 230 230 9 230 230 9 230 230 9 230 230 9 230 230 9 230 230 9 230 230 188 72 194 9 230 230 9 230 230 9 230 230 9 230 230 9 230 230 9 230 230 9 230 230 9 230 230 9 230 230 9 230 230 9 230 230 9 230 230 9 230 230 9 230 230 9 230 230 9 230 230 9 230 230 9 230 230 27 125 7 9 230 230 9 230 230 9 230 230 9 230 230 9 230 230 9 230 230 9 230 230 9 230 230 9 230 230 9 230 230 9 230 230 9 230 230 9 230 230 9 230 230 9 230 230 9 230 230 9 230 230 9 230 230 9 230 230 188 72 194 9 230 230 9 230 230 9 230 230 9 230 230 9 230 230 9 230 230 9 230 230 9 230 230 9 230 230 9 230 230
9 230 230 9 230 230 9 230 230 9 230 230 9 230 230 9 230 230 9 230 230 9 230 230 9 230 230 9 230 230 188 72 194 9 230 230 9 230 230 9 230 230 9 230 230 9 230 230 9 230 230 9 230 230 9 230 230 9 230 230 9 230 230 9 230 230 9 230 230 9 230 230 9 230 230 9 230 230 9 230 230 9 230 230 9 230 230 27 125 7 9 230 230 9 230 230 9 230 230 9 230 230 9 230 230 9 230 230 9 230 230 9 230 230 9 230 230 9 230 230 9 230 230 9 230 230 9 230 230 9 230 230 9 230 230 9 230 230 9 230 230 9 230 230 9 230 230 188 72 194 9 230 230 9 230 230 9 230 230 9 230 230 9 230 230 9 230 230 9 230 230 9 230 230 9 230 230 9 230 230
9 230 230 9 230 230 9 230 230 9 230 230 9 230 230 9 230 230 9 230 230 9 230 230 9 230 230 9 230 230 188 72 194 9 230 230 9 230 230 9 230 230 9 230 230 9 230 230 9 230 230 9 230 230 9 230 230 9 230 230 9 230 230 9 230 230 9 230 230 9 230 230 9 230 230 9 230 230 9 230 230 9 230 230 9 230 230 27 125 7 9 230 230 9 230 230 9 230 230 9 230 230 9 230 230 9 230 230 9 230 230 9 230 230 9 230 230 9 230 230 9 230 230 9 230 230 9 230 230 9 230 230 9 230 230 9 230 230 9 230 230 9 230 230 9 230 230 188 72 194 9 230 230 9 230 230 9 230 230 9 230 230 9 230 230 9 230 230 9 230 230 9 230 230 9 230 230 9 230 230
9 230 230 9 230 230 9 230 230 9 230 230 9 230 230 9 230 230 9 230 230 9 230 230 9 230 230 9 230 230 188 72 194 9 230 230 9 230 230 9 230 230 9 230 230 9 230 230 9 230 230 9 230 230 9 230 230 9 230 230 9 230 230 9 230 230 9 230 230 9 230 230 9 230 230 9 230 230 9 230 230 9 230 230 9 230 230 27 125 7 9 230 230 9 230 230 9 230 230 9 230 230 9 230 230 9 230 230 9 230 230 9 230 230 9 230 230 9 230 230 9 230 230 9 230 230 9 230 230 9 230 230 9 230 230 9 230 230 9 230 230 9 230 230 9 230 230 188 72 194 9 230 230 9 230 230 9 230 230 9 230 230 9 230 230 9 230 230 9 230 230 9 230 230 9 230 230 9 230 230
9 230 230 9 230 230 9 230 230 9 230 230 9 230 230 9 230 230 9 230 230 9 230 230 9 230 230 9 230 230 188 72 194 9 230 230 9 230 230 9 230 230 9 230 230 9 230 230 9 230 230 9 230 230 9 230 230 9 230 230 9 230 230 9 230 230 9 230 230 9 230 230 9 230 230 9 230 230 9 230 230 9 230 230 9 230 230 27 125 7 9 230 230 9 230 230 9 230 230 9 230 230 9 230 230 9 230 230 9 230 230 9 230 230 9 230 230 9 230 230 9 230 230 9 230 230 9 230 230 9 230 230 9 230 230 9 230 230 9 230 230 9 230 230 9 230 230 188 72 194 9 230 230 9 230 230 9 230 230 9 230 230 9 230 230 9 230 230 9 230 230 9 230 230 9 230 230 9 230 230
9 230 230 9 230 230 9 230 230 9 230 230 9 230 230 9 230 230 9 230 230 9 230 230 9 230 230 9 230 230 188 72 194 9 230 230 9 230 230 9 230 230 9 230 230 9 230 230 9 230 230 9 230 230 9 230 230 9 230 230 9 230 230 9 230 230 9 230 230 9 230 230 9 230 230 9 230 230 9 230 230 9 230 230 9 230 230 27 125 7 9 230 230 9 230 230 9 230 230 9 230 230 9 230 230 9 230 230 9 230 230 9 230 230 9 230 230 9 230 230 9 230 230 9 230 230 9 230 230 9 230 230 9 230 230 9 230 230 9 230 230 9 230 230 9 230 230 188 72 194 9 230 230 9 230 230 9 230 230 9 230 230 9 230 230 9 230 230 9 230 230 9 230 230 9 230 230 9 230 230
9 230 230 9 230 230 9 230 230 9 230 230 9 230 230 9 230 230 9 230 230 9 230 230 9 230 230 9 230 230 188 72 194 188 72 194 188 72 194 188 72 194 188 72 194 188 72 194 188 72 194 188 72 194 188 72 194 188 72 194 188 72 194 188 72 194 188 72 194 188 72 194 188 72 194 188 72 194 188 72 194 188 72 194 188 72 194 27 125 7 188 72 194 188 72 194 188 72 194 188 72 194 188 72 194 188 72 194 188 72 194 188 72 194 188 72 194 188 72 194 188 72 194 188 72 194 188 72 194 188 72 194 188 72 194 188 72 194 188 72 194 188 72 194 188 72 194 188 72 194 9 230 230 9 230 230 9 230 230 9 230 230 9 230 230 9 230 230 9 230 230 9 230 230 9 230 230 9 230 230
9 230 230 9 230 230 9 230 230 9 230 230 9 230 230 9 230 230 9 230 230 9 230 230 9 230 230 9 230 230 9 230 230 9 230 230 9 230 230 9 230 230 9 230 230 9 230 230 9 230 230 9 230 230 9 230 230 9 230 230 9 230 230 9 230 230 9 230 230 9 230 230 9 230 230 9 230 230 9 230 230 9 230 230 9 230 230 9 230 230 9 230 230 9 230 230 9 230 230 9 230 230 9 230 230 9 230 230 9 230 230 9 230 230 9 230 230 9 230 230 9 230 230 9 230 230 9 230 230 9 230 230 9 230 230 9 230 230 9 230 230 9 230 230 9 230 230 9 230 230 9 230 230 9 230 230 9 230 230 9 230 230 9 230 230 9 230 230 9 230 230 9 230 230 9 230 230 9 230 230
9 230 230 9 230 230 9 230 230 9 230 230 9 230 230 9 230 230 9 230 230 9 230 230 9 230 230 9 230 230 9 230 230 9 230 230 9 230 230 9 230 230 9 230 230 9 230 230 9 230 230 9 230 230 9 230 230 9 230 230 9 230 230 9 230 230 9 230 230 9 230 230 9 230 230 9 230 230 9 230 230 9 230 230 9 230 230 9 230 230 9 230 230 9 230 230 9 230 230 9 230 230 9 230 230 9 230 230 9 230 230 9 230 230 9 230 230 9 230 230 9 230 230 9 230 230 9 230 230 9 230 230 9 230 230 9 230 230 9 230 230 9 230 230 9 230 230 9 230 230 9 230 230 9 230 230 9 230 230 9 230 230 9 230 230 9 230 230 9 230 230 9 230 230 9 230 230 9 230 230
9 230 230 9 230 230 9 230 230 9 230 230 9 230 230 9 230 230 9 230 230 9 230 230 9 230 230 9 230 230 9 230 230 9 230 230 9 230 230 9 230 230 9 230 230 9 230 230 9 230 230 9 230 230 9 230 230 9 230 230 9 230 230 9 230 230 9 230 230 9 230 230 9 230 230 9 230 230 9 230 230 9 230 230 9 230 230 9 230 230 9 230 230 9 230 230 9 230 230 9 230 230 9 230 230 9 230 230 9 230 230 9 230 230 9 230 230 9 230 230 9 230 230 9 230 230 9 230 230 9 230 230 9 230 230 9 230 230 9 230 230 9 230 230 9 230 230 9 230 230 9 230 230 9 230 230 9 230 230 9 230 230 9 230 230 9 230 230 9 230 230 9 230 230 9 230 230 9 230 230
9 230 230 9 230 230 9 230 230 9 230 230 9 230 230 9 230 230 9 230 230 9 230 230 9 230 230 9 230 230 9 230 230 9 230 230 9 230 230 9 230 230 9 230 230 9 230 230 9 230 230 9 230 230 9 230 230 9 230 230 9 230 230 9 230 230 9 230 230 9 230 230 9 230 230 9 230 230 9 230 230 9 230 230 9 230 230 9 230 230 9 230 230 9 230 230 9 230 230 9 230 230 9 230 230 9 230 230 9 230 230 9 230 230 9 230 230 9 230 230 9 230 230 9 230 230 9 230 230 9 230 230 9 230 230 9 230 230 9 230 230 9 230 230 9 230 230 9 230 230 9 230 230 9 230 230 9 230 230 9 230 230 9 230 230 9 230 230 9 230 230 9 230 230 9 230 230 9 230 230
9 230 230 9 230 230 9 230 230 9 230 230 9 230 230 9 230 230 9 230 230 9 230 230 9 230 230 9 230 230 9 230 230 9 230 230 9 230 230 9 230 230 9 230 230 9 230 230 9 230 230 9 230 230 9 230 230 9 230 230 9 230 230 9 230 230 9 230 230 9 230 230 9 230 230 9 230 230 9 230 230 9 230 230 9 230 230 9 230 230 9 230 230 9 230 230 9 230 230 9 230 230 9 230 230 9 230 230 9 230 230 9 230 230 9 230 230 9 230 230 9 230 230 9 230 230 9 230 230 9 230 230 9 230 230 9 230 230 9 230 230 9 230 230 9 230 230 9 230 230 9 230 230 9 230 230 9 230 230 9 230 230 9 230 230 9 230 230 9 230 230 9 230 230 9 230 230 9 230 230
9 230 230 9 230 230 9 230 230 9 230 230 9 230 230 9 230 230 9 230 230 9 230 230 9 230 230 9 230 230 9 230 230 9 230 230 9 230 230 9 230 230 9 230 230 9 230 230 9 230 230 9 230 230 9 230 230 9 230 230 9 230 230 9 230 230 9 230 230 9 230 230 9 230 230 9 230 230 9 230 230 9 230 230 9 230 230 9 230 230 9 230 230 9 230 230 9 230 230 9 230 230 9 230 230 9 230 230 9 230 230 9 230 230 9 230 230 9 230 230 9 230 230 9 230 230 9 230 230 9 230 230 9 230 230 9 230 230 9 230 230 9 230 230 9 230 230 9 230 230 9 230 230 9 230 230 9 230 230 9 230 230 9 230 230 9 230 230 9 230 230 9 230 230 9 230 230 9 230 230
9 230 230 9 230 230 9 230 230 9 230 230 9 230 230 9 230 230 9 230 230 9 230 230 9 230 230 9 230 230 9 230 230 9 230 230 9 230 230 9 230 230 9 230 230 9 230 230 9 230 230 9 230 230 9 230 230 9 230 230 9 230 230 9 230 230 9 230 230 9 230 230 9 230 230 9 230 230 9 230 230 9 230 230 9 230 230 9 230 230 9 230 230 9 230 230 9 230 230 9 230 230 9 230 230 9 230 230 9 230 230 9 230 230 9 230 230 9 230 230 9 230 230 9 230 230 9 230 230 9 230 230 9 230 230 9 230 230 9 230 230 9 230 230 9 230 230 9 230 230 9 230 230 9 230 230 9 230 230 9 230 230 9 230 230 9 230 230 9 230 230 9 230 230 9 230 230 9 230 230
9 230 230 9 230 230 9 230 230 9 230 230 9 230 230 9 230 230 9 230 230 9 230 230 9 230 230 9 230 230 9 230 230 9 230 230 9 230 230 9 230 230 9 230 230 9 230 230 9 230 230 9 230 230 9 230 230 9 230 230 9 230 230 9 230 230 9 230 230 9 230 230 9 230 230 9 230 230 9 230 230 9 230 230 9 230 230 9 230 230 9 230 230 9 230 230 9 230 230 9 230 230 9 230 230 9 230 230 9 230 230 9 230 230 9 230 230 9 230 230 9 230 230 9 230 230 9 230 230 9 230 230 9 230 230 9 230 230 9 230 230 9 230 230 9 230 230 9 230 230 9 230 230 9 230 230 9 230 230 9 230 230 9 230 230 9 230 230 9 230 230 9 230 230 9 230 230 9 230 230
9 230 230 9 230 230 9 230 230 9 230 230 9 230 230 9 230 230 9 230 230 9 230 230 9 230 230 9 230 230 9 230 230 9 230 230 9 230 230 9 230 230 9 230 230 9 230 230 9 230 230 9 230 230 9 230 230 9 230 230 9 230 230 9 230 230 9 230 230 9 230 230 9 230 230 9 230 230 9 230 230 9 230 230 9 230 230 9 230 230 9 230 230 9 230 230 9 230 230 9 230 230 9 230 230 9 230 230 9 230 230 9 230 230 9 230 230 9 230 230 9 230 230 9 230 230 9 230 230 9 230 230 9 230 230 9 230 230 9 230 230 9 230 230 9 230 230 9 230 230 9 230 230 9 230 230 9 230 230 9 230 230 9 230 230 9 230 230 9 230 230 9 230 230 9 230 230 9 230 230
9 230 230 9 230 230 9 230 230 9 230 230 9 230 230 9 230 230 9 230 230 9 230 230 9 230 230 9 230 230 9 230 230 9 230 230 9 230 230 9 230 230 9 230 230 9 230 230 9 230 230 9 230 230 9 230 230 9 230 230 9 230 230 9 230 230 9 230 230 9 230 230 9 230 230 9 230 230 9 230 230 9 230 230 9 230 230 9 230 230 9 230 230 9 230 230 9 230 230 9 230 230 9 230 230 9 230 230 9 230 230 9 230 230 9 230 230 9 230 230 9 230 230 9 230 230 9 230 230 9 230 230 9 230 230 9 230 230 9 230 230 9 230 230 9 230 230 9 230 230 9 230 230 9 230 230 9 230 230 9 230 230 9 230 230 9 230 230 9 230 230 9 230 230 9 230 230 9 230 230
